# xmcd
#
# Track frame offsets: 
#        182
#        14740
#        32605
#        46762
#        63515
#        80077
#        101352
#        115595
#        127152
#        140937
#        158322
#        172540
#
# Disc length: 2502 seconds
#
# Revision: 3
# Processed by: cddbd v1.5.2PL0 Copyright (c) Steve Scherf et al.
# Submitted via: ExactAudioCopy v0.99pb5
#
DISCID=9409c40c
DTITLE=Bryan White - Greatest Hits
DYEAR=2000
DGENRE=Country
TTITLE0=Love Is The Right Place
TTITLE1=Rebecca Lynn
TTITLE2=Sittin' On Go
TTITLE3=I'm Not Supposed To Love You Anymore
TTITLE4=How Long
TTITLE5=From This Moment On (With Shania Twain)
TTITLE6=That's Another Song
TTITLE7=So Much For Pretending
TTITLE8=The Way You Look At Me
TTITLE9=One Small Miracle
TTITLE10=Look At Me Now
TTITLE11=Someone Else's Star
EXTD=
EXTT0=
EXTT1=
EXTT2=
EXTT3=
EXTT4=
EXTT5=
EXTT6=
EXTT7=
EXTT8=
EXTT9=
EXTT10=
EXTT11=
PLAYORDER=
